name analog
datacolumns 19
datarows 46
range 0.6765 0.6990000000000001
endheader
time	ground_force_vx	ground_force_vy	ground_force_vz	ground_force_px	ground_force_py	ground_force_pz	l_ground_force_vx	l_ground_force_vy	l_ground_force_vz	l_ground_force_px	l_ground_force_py	l_ground_force_pz	ground_torque_x	ground_torque_y	ground_torque_z	l_ground_torque_x	l_ground_torque_y	l_ground_torque_z
0.6765	-0.0	-0.0	-0.0	-4.906135082244873	48.21955108642578	-326.6923522949219	-1.418731451034546	-37.62376022338867	-295.3973999023437	-0.0	-0.0	-0.0	-0.0	-0.0	-0.0	79267.46875	-1516.3173828125	-99.77195739746094
0.677	-0.0	-0.0	-0.0	-3.4804749488830566	47.32773971557617	-322.10211181640625	-0.977162539958954	-36.91846466064453	-292.9250183105469	-0.0	-0.0	-0.0	-0.0	-0.0	-0.0	77972.9375	-1781.206787109375	139.37142944335938
0.6775	-0.0	-0.0	-0.0	-2.676121473312378	46.16838455200195	-318.91766357421875	-0.7959445714950562	-36.29899597167969	-287.6936950683594	-0.0	-0.0	-0.0	-0.0	-0.0	-0.0	76942.7578125	-1718.9195556640625	375.8464965820313
0.678	-0.0	-0.0	-0.0	-2.0514020919799805	44.56563949584961	-314.6816101074219	-0.0855170488357544	-35.8598747253418	-283.4960327148437	-0.0	-0.0	-0.0	-0.0	-0.0	-0.0	75659.25	-2023.9892578125	733.072509765625
0.6785	-0.0	-0.0	-0.0	-1.0713298320770264	44.38565444946289	-309.0331115722656	1.0662707090377808	-35.85456085205078	-278.6229858398437	-0.0	-0.0	-0.0	-0.0	-0.0	-0.0	74666.734375	-2081.9560546875	1178.4071044921875
0.679	-0.0	-0.0	-0.0	-1.4255748987197876	43.05088424682617	-304.0922241210937	2.041545391082764	-35.68255615234375	-275.1291198730469	-0.0	-0.0	-0.0	-0.0	-0.0	-0.0	73335.7109375	-2144.902587890625	1682.83837890625
0.6795	-0.0	-0.0	-0.0	-1.4256919622421265	42.87068176269531	-300.2021179199219	2.7506625652313232	-35.50281524658203	-272.6800231933594	-0.0	-0.0	-0.0	-0.0	-0.0	-0.0	72334.2578125	-2337.804931640625	2128.32958984375
0.68	-0.0	-0.0	-0.0	-0.7133833765983582	42.24736022949219	-297.02496337890625	3.1060163974761963	-35.41926956176758	-269.5495300292969	-0.0	-0.0	-0.0	-0.0	-0.0	-0.0	71533.0078125	-2321.976806640625	2248.060791015625
0.6805	-0.0	-0.0	-0.0	-1.0703692436218262	42.33772659301758	-292.78619384765625	3.818595170974731	-35.15203094482422	-265.0106506347656	-0.0	-0.0	-0.0	-0.0	-0.0	-0.0	70919.53125	-2282.62353515625	2516.000732421875
0.681	-0.0	-0.0	-0.0	-0.7147232890129089	41.535457611083984	-289.6075439453125	4.438498020172119	-34.88471221923828	-262.2152099609375	-0.0	-0.0	-0.0	-0.0	-0.0	-0.0	70044.921875	-2710.594970703125	2722.991943359375
0.6815	-0.0	-0.0	-0.0	-0.8028945922851562	41.178016662597656	-283.25347900390625	5.409225940704346	-34.27199935913086	-259.7709045410156	-0.0	-0.0	-0.0	-0.0	-0.0	-0.0	69022.0234375	-2252.66064453125	2961.724609375
0.682	-0.0	-0.0	-0.0	-1.069949746131897	40.82258605957031	-281.4833068847656	4.791507244110107	-34.0060920715332	-257.6694641113281	-0.0	-0.0	-0.0	-0.0	-0.0	-0.0	68013.953125	-2404.0654296875	2961.738525390625
0.6825	-0.0	-0.0	-0.0	-1.2488621473312378	40.9996452331543	-278.6586608886719	4.791894912719727	-34.004356384277344	-254.17047119140625	-0.0	-0.0	-0.0	-0.0	-0.0	-0.0	67417.6640625	-2232.361328125	3168.486083984375
0.683	-0.0	-0.0	-0.0	-0.5358989834785461	40.732383728027344	-277.9509582519531	5.230790615081787	-33.4734001159668	-249.6537170410156	-0.0	-0.0	-0.0	-0.0	-0.0	-0.0	66591.703125	-2496.411376953125	3139.255859375
0.6835	-0.0	-0.0	-0.0	-0.7143710851669312	40.286529541015625	-275.127197265625	5.410248279571533	-32.858428955078125	-246.17372131347656	-0.0	-0.0	-0.0	-0.0	-0.0	-0.0	65501.34375	-2547.283203125	3405.93896484375
0.684	-0.0	-0.0	-0.0	-1.4275246858596802	40.28717422485352	-272.655517578125	5.325127124786377	-32.326229095458984	-246.49517822265625	-0.0	-0.0	-0.0	-0.0	-0.0	-0.0	65143.07421875	-2726.06103515625	3495.933349609375
0.6845	-0.0	-0.0	-0.0	-1.9631253480911253	40.10838317871094	-271.59539794921875	6.567179203033447	-31.44046401977539	-245.0922393798828	-0.0	-0.0	-0.0	-0.0	-0.0	-0.0	64892.42578125	-2833.94677734375	3616.2158203125
0.685	-0.0	-0.0	-0.0	-2.8537044525146484	39.484901428222656	-271.9480285644531	7.450068473815918	-30.825899124145508	-242.998779296875	-0.0	-0.0	-0.0	-0.0	-0.0	-0.0	64658.453125	-3363.182861328125	3943.15087890625
0.6855	-0.0	-0.0	-0.0	-2.3194732666015625	38.77179718017578	-270.1818542480469	8.426063537597656	-29.767316818237305	-241.6129150390625	-0.0	-0.0	-0.0	-0.0	-0.0	-0.0	64137.671875	-3662.70166015625	4152.21142578125
0.686	-0.0	-0.0	-0.0	-2.498351573944092	38.95026397705078	-270.18231201171875	9.049515724182127	-29.765419006347656	-239.51800537109372	-0.0	-0.0	-0.0	-0.0	-0.0	-0.0	64070.0546875	-4091.541748046875	4567.986328125
0.6865	-0.0	-0.0	-0.0	-3.122464895248413	38.68262481689453	-268.4171447753906	10.555234909057615	-28.8820858001709	-237.77224731445312	-0.0	-0.0	-0.0	-0.0	-0.0	-0.0	63427.18359375	-4357.87353515625	4894.73828125
0.687	-0.0	-0.0	-0.0	-3.746718168258667	37.791290283203125	-266.651611328125	10.7368745803833	-29.498966217041016	-237.41368103027344	-0.0	-0.0	-0.0	-0.0	-0.0	-0.0	63064.29296875	-4641.2333984375	5162.646484375
0.6875	-0.0	-0.0	-0.0	-4.192610740661621	38.236759185791016	-267.7103881835937	11.442670822143556	-29.05834197998047	-234.62786865234372	-0.0	-0.0	-0.0	-0.0	-0.0	-0.0	62509.453125	-4834.7041015625	5281.8095703125
0.6880000000000001	-0.0	-0.0	-0.0	-3.6578774452209473	37.4348030090332	-267.00445556640625	11.709823608398438	-29.14570617675781	-233.2226104736328	-0.0	-0.0	-0.0	-0.0	-0.0	-0.0	61985.8203125	-5344.0576171875	5400.38427734375
0.6885	-0.0	-0.0	-0.0	-3.925206422805786	37.0783576965332	-267.7095031738281	11.889132499694824	-29.14521598815918	-229.4000396728516	-0.0	-0.0	-0.0	-0.0	-0.0	-0.0	61519.58203125	-5452.42578125	5638.009765625
0.6890000000000001	-0.0	-0.0	-0.0	-3.7468414306640634	37.16738128662109	-268.061279296875	12.595431327819824	-28.879697799682617	-226.9603576660156	-0.0	-0.0	-0.0	-0.0	-0.0	-0.0	60714.265625	-6109.21728515625	5875.77099609375
0.6895	-0.0	-0.0	-0.0	-3.836151838302612	36.89998626708984	-265.5909118652344	12.864387512207031	-28.17549705505371	-229.03651428222656	-0.0	-0.0	-0.0	-0.0	-0.0	-0.0	60542.16015625	-6326.912109375	5994.42333984375
0.6900000000000001	-0.0	-0.0	-0.0	-4.2818756103515625	36.45445251464844	-264.8858642578125	13.129668235778809	-28.086767196655277	-226.9429626464844	-0.0	-0.0	-0.0	-0.0	-0.0	-0.0	60799.12890625	-7009.2509765625	6202.3037109375
0.6905	-0.0	-0.0	-0.0	-4.549724578857422	36.54345703125	-265.9444580078125	13.927593231201172	-27.55677795410156	-226.2535095214844	-0.0	-0.0	-0.0	-0.0	-0.0	-0.0	60439.6484375	-7026.458984375	6410.892578125
0.6910000000000001	-0.0	-0.0	-0.0	-4.460455417633057	35.830352783203125	-265.2379455566406	14.018901824951172	-28.086727142333984	-226.25364685058597	-0.0	-0.0	-0.0	-0.0	-0.0	-0.0	60401.9453125	-7544.14599609375	6559.4580078125
0.6915	-0.0	-0.0	-0.0	-4.0143256187438965	35.4742431640625	-263.82525634765625	15.168617248535156	-28.176002502441406	-225.893798828125	-0.0	-0.0	-0.0	-0.0	-0.0	-0.0	60406.8828125	-8062.38671875	7003.259765625
0.6920000000000001	-0.0	-0.0	-0.0	-4.192834854125977	35.47391128540039	-263.825439453125	15.347371101379396	-28.61582374572754	-225.5487518310547	-0.0	-0.0	-0.0	-0.0	-0.0	-0.0	60167.92578125	-8052.322265625	7064.365234375
0.6925	-0.0	-0.0	-0.0	-3.5684096813201904	35.919532775878906	-261.70654296875	15.525225639343262	-29.232807159423828	-225.8928375244141	-0.0	-0.0	-0.0	-0.0	-0.0	-0.0	60399.09375	-8680.912109375	7212.2587890625
0.6930000000000001	-0.0	-0.0	-0.0	-3.479314088821411	35.74112319946289	-264.5313720703125	15.791864395141602	-29.23447799682617	-226.59410095214844	-0.0	-0.0	-0.0	-0.0	-0.0	-0.0	59942.4765625	-8957.9111328125	7360.33837890625
0.6935	-0.0	-0.0	-0.0	-3.746938943862915	35.295738220214844	-264.1785888671875	15.25981330871582	-29.49944305419922	-226.59786987304688	-0.0	-0.0	-0.0	-0.0	-0.0	-0.0	60153.25390625	-9452.01953125	7360.1728515625
0.6940000000000001	-0.0	-0.0	-0.0	-3.657684087753296	35.11740493774414	-262.7659606933594	15.348644256591797	-29.499860763549805	-227.6468505859375	-0.0	-0.0	-0.0	-0.0	-0.0	-0.0	60680.421875	-9565.5654296875	7360.525390625
0.6945	-0.0	-0.0	-0.0	-3.6578407287597656	34.9392204284668	-263.4716186523437	15.437481880187988	-29.322799682617188	-227.99884033203125	-0.0	-0.0	-0.0	-0.0	-0.0	-0.0	60803.984375	-9851.033203125	7419.90380859375
0.6950000000000001	-0.0	-0.0	-0.0	-3.5686326026916504	34.582523345947266	-262.4124450683594	15.614233016967772	-29.411874771118164	-228.3481292724609	-0.0	-0.0	-0.0	-0.0	-0.0	-0.0	61205.03515625	-10132.0654296875	7627.0400390625
0.6955	-0.0	-0.0	-0.0	-3.74686861038208	33.95870590209961	-263.1190795898437	15.791747093200684	-29.588579177856445	-230.43844604492188	-0.0	-0.0	-0.0	-0.0	-0.0	-0.0	61479.5234375	-10819.041015625	7569.27783203125
0.6960000000000001	-0.0	-0.0	-0.0	-3.5687949657440186	34.04793930053711	-260.6485290527344	16.23582649230957	-28.971607208251957	-230.7864532470703	-0.0	-0.0	-0.0	-0.0	-0.0	-0.0	61709.45703125	-10910.2822265625	7835.96435546875
0.6965	-0.0	-0.0	-0.0	-4.728353023529053	33.78054428100586	-261.3531494140625	16.412612915039062	-30.38265991210937	-233.5780334472656	-0.0	-0.0	-0.0	-0.0	-0.0	-0.0	62054.35546875	-11249.044921875	8042.91162109375
0.6970000000000001	-0.0	-0.0	-0.0	-5.798628807067871	34.3151969909668	-262.0595092773437	16.501420974731445	-30.557689666748047	-232.18582153320312	-0.0	-0.0	-0.0	-0.0	-0.0	-0.0	62196.03125	-11360.2822265625	8131.64990234375
0.6975	-0.0	-0.0	-0.0	-5.887828350067139	34.4932746887207	-260.294921875	16.941682815551758	-30.473051071166992	-233.927490234375	-0.0	-0.0	-0.0	-0.0	-0.0	-0.0	62521.6796875	-11453.7705078125	8072.92724609375
0.6980000000000001	-0.0	-0.0	-0.0	-6.244832515716553	34.40439987182617	-259.5877990722656	16.678762435913086	-31.002416610717773	-235.6803131103516	-0.0	-0.0	-0.0	-0.0	-0.0	-0.0	62816.59765625	-11931.859375	8191.51708984375
0.6985	-0.0	-0.0	-0.0	-6.958876132965088	33.87009811401367	-259.587646484375	17.120861053466797	-31.268104553222656	-236.7235412597656	-0.0	-0.0	-0.0	-0.0	-0.0	-0.0	63360.26953125	-12198.046875	8161.84619140625
0.6990000000000001	-0.0	-0.0	-0.0	-8.02879524230957	34.40441131591797	-258.880615234375	16.500205993652344	-31.972450256347656	-239.170166015625	-0.0	-0.0	-0.0	-0.0	-0.0	-0.0	63861.8828125	-12116.48828125	8339.544921875
